<?xml version="1.0" encoding="utf-8"?>
<!-- Generator: Adobe Illustrator 16.0.0, SVG Export Plug-In . SVG Version: 6.00 Build 0)  -->
<!DOCTYPE svg PUBLIC "-//W3C//DTD SVG 1.1//EN" "http://www.w3.org/Graphics/SVG/1.1/DTD/svg11.dtd">
<svg version="1.1" xmlns="http://www.w3.org/2000/svg" xmlns:xlink="http://www.w3.org/1999/xlink" x="0px" y="0px" width="200px"
	 height="200px" viewBox="0 0 200 200" enable-background="new 0 0 200 200" xml:space="preserve">
<g id="Layer_1">
</g>
<g id="Layer_2">
	<g>
		<path d="M104.49,122.455c-2.459-2.511-6.488-2.552-8.999-0.093c-0.031,0.03-0.062,0.062-0.091,0.093l-24.909,24.999
			c-2.485,2.511-2.465,6.561,0.045,9.046s6.56,2.465,9.045-0.046l0,0l14.127-14.127v41.31c0,3.515,2.849,6.363,6.364,6.363
			c3.515,0,6.364-2.849,6.364-6.363V142.31l14.054,14.054c2.486,2.511,6.535,2.531,9.046,0.046s2.531-6.535,0.046-9.046l0,0
			L104.49,122.455z"/>
		<path d="M129.491,43.636c-2.46-2.51-6.489-2.551-8.999-0.092c-0.031,0.03-0.062,0.061-0.092,0.092l-14.037,14.055V16.363
			c0-3.514-2.849-6.363-6.363-6.363s-6.363,2.849-6.363,6.363v41.328L79.491,43.636c-2.486-2.51-6.535-2.531-9.046-0.045
			c-2.51,2.485-2.531,6.535-0.045,9.045l25.091,24.909c2.46,2.511,6.489,2.552,9,0.093c0.031-0.03,0.061-0.062,0.092-0.093
			l24.909-25C131.916,50.071,131.916,46.111,129.491,43.636z"/>
		<path d="M16.363,106.363h41.328l-14.055,14.146c-2.485,2.511-2.465,6.561,0.045,9.046s6.561,2.465,9.045-0.045l24.818-25.001
			c2.485-2.484,2.485-6.515,0-8.999l0-0.001l-25-25c-2.485-2.511-6.535-2.531-9.045-0.046c-2.51,2.485-2.531,6.535-0.045,9.045l0,0
			L57.6,93.654H16.363c-3.514,0-6.363,2.85-6.363,6.364s2.849,6.363,6.363,6.363V106.363z"/>
		<path d="M183.637,93.637h-41.328l14.055-14.128c2.486-2.51,2.465-6.56-0.045-9.045c-2.511-2.485-6.561-2.465-9.045,0.046
			l-24.818,25c-2.486,2.485-2.486,6.515-0.001,9h0.001l25,24.982c2.484,2.511,6.535,2.53,9.045,0.045
			c2.51-2.484,2.531-6.534,0.045-9.045l-14.236-14.128h41.328c3.515,0,6.363-2.849,6.363-6.363S187.151,93.637,183.637,93.637z"/>
		<path d="M100,82.327c-9.76,0-17.673,7.912-17.673,17.673S90.24,117.673,100,117.673c9.76,0,17.673-7.912,17.673-17.673
			C117.662,90.244,109.756,82.337,100,82.327z"/>
	</g>
</g>
</svg>
