<?xml version="1.0" encoding="utf-8"?>
<!-- Generator: Adobe Illustrator 16.0.0, SVG Export Plug-In . SVG Version: 6.00 Build 0)  -->
<!DOCTYPE svg PUBLIC "-//W3C//DTD SVG 1.1//EN" "http://www.w3.org/Graphics/SVG/1.1/DTD/svg11.dtd">
<svg version="1.1" xmlns="http://www.w3.org/2000/svg" xmlns:xlink="http://www.w3.org/1999/xlink" x="0px" y="0px" width="200px"
	 height="200px" viewBox="0 0 200 200" enable-background="new 0 0 200 200" xml:space="preserve">
<g id="Layer_1">
</g>
<g id="Layer_2" display="none">
	<g display="inline">
		<path d="M104.49,122.455c-2.459-2.511-6.488-2.552-8.999-0.093c-0.031,0.03-0.062,0.062-0.091,0.093l-24.909,24.999
			c-2.485,2.511-2.465,6.561,0.045,9.046s6.56,2.465,9.045-0.046l0,0l14.127-14.127v41.31c0,3.515,2.849,6.363,6.364,6.363
			c3.515,0,6.364-2.849,6.364-6.363V142.31l14.054,14.054c2.486,2.511,6.535,2.531,9.046,0.046s2.531-6.535,0.046-9.046l0,0
			L104.49,122.455z"/>
		<path d="M129.491,43.636c-2.46-2.51-6.489-2.551-8.999-0.092c-0.031,0.03-0.062,0.061-0.092,0.092l-14.037,14.055V16.363
			c0-3.514-2.849-6.363-6.363-6.363s-6.363,2.849-6.363,6.363v41.328L79.491,43.636c-2.486-2.51-6.535-2.531-9.046-0.045
			c-2.51,2.485-2.531,6.535-0.045,9.045l25.091,24.909c2.46,2.511,6.489,2.552,9,0.093c0.031-0.03,0.061-0.062,0.092-0.093
			l24.909-25C131.916,50.071,131.916,46.111,129.491,43.636z"/>
		<path d="M16.363,106.363h41.328l-14.055,14.146c-2.485,2.511-2.465,6.561,0.045,9.046s6.561,2.465,9.045-0.045l24.818-25.001
			c2.485-2.484,2.485-6.515,0-8.999l0-0.001l-25-25c-2.485-2.511-6.535-2.531-9.045-0.046c-2.51,2.485-2.531,6.535-0.045,9.045l0,0
			L57.6,93.654H16.363c-3.514,0-6.363,2.85-6.363,6.364s2.849,6.363,6.363,6.363V106.363z"/>
		<path d="M183.637,93.637h-41.328l14.055-14.128c2.486-2.51,2.465-6.56-0.045-9.045c-2.511-2.485-6.561-2.465-9.045,0.046
			l-24.818,25c-2.486,2.485-2.486,6.515-0.001,9h0.001l25,24.982c2.484,2.511,6.535,2.53,9.045,0.045
			c2.51-2.484,2.531-6.534,0.045-9.045l-14.236-14.128h41.328c3.515,0,6.363-2.849,6.363-6.363S187.151,93.637,183.637,93.637z"/>
		<path d="M100,82.327c-9.76,0-17.673,7.912-17.673,17.673S90.24,117.673,100,117.673c9.76,0,17.673-7.912,17.673-17.673
			C117.662,90.244,109.756,82.337,100,82.327z"/>
	</g>
</g>
<g id="Layer_3">
	<g transform="translate(0,-952.36218)">
		<path d="M35.116,962.362c-1.356,0-2.088,1.125-2.093,2.093c-0.001,0.226,0.055,0.437,0.131,0.654l14.651,41.86
			c0.27,0.822,1.097,1.428,1.962,1.439h48.139v31.396c0,4.323,0.601,8.56,3.271,12.428c2.671,3.867,7.189,7.173,14.717,10.399
			c13.958,6.214,23.874,19.57,23.874,35.777c0,21.987-17.78,39.767-39.768,39.767s-39.768-17.779-39.768-39.767
			c0.015-1.106-0.987-2.094-2.093-2.094s-2.108,0.987-2.093,2.094c0,24.25,19.703,43.953,43.953,43.953s43.953-19.703,43.953-43.953
			c0-17.92-11.031-32.747-26.358-39.571c-7.124-3.053-10.978-6.073-13.017-9.026s-2.485-6.035-2.485-10.008v-31.395h48.14
			c0.865-0.011,1.691-0.617,1.962-1.439l14.651-41.861c0.069-0.211,0.131-0.437,0.131-0.654c0-1.061-1.007-2.093-2.093-2.093H35.116
			L35.116,962.362z M38.06,966.549H161.94l-13.213,37.674H51.271L38.06,966.549L38.06,966.549z M70.697,979.107
			c-3.468,0-6.278,2.811-6.278,6.279c0,3.468,2.811,6.279,6.278,6.279c3.469,0,6.279-2.811,6.279-6.279
			C76.977,981.918,74.166,979.107,70.697,979.107z M129.302,979.107c-3.468,0-6.278,2.811-6.278,6.279
			c0,3.468,2.811,6.279,6.278,6.279s6.279-2.811,6.279-6.279C135.581,981.918,132.77,979.107,129.302,979.107z"/>
	</g>
</g>
</svg>
