<?xml version="1.0" encoding="utf-8"?>
<!-- Generator: Adobe Illustrator 16.0.0, SVG Export Plug-In . SVG Version: 6.00 Build 0)  -->
<!DOCTYPE svg PUBLIC "-//W3C//DTD SVG 1.1//EN" "http://www.w3.org/Graphics/SVG/1.1/DTD/svg11.dtd">
<svg version="1.1" xmlns="http://www.w3.org/2000/svg" xmlns:xlink="http://www.w3.org/1999/xlink" x="0px" y="0px" width="200px"
	 height="200px" viewBox="0 0 200 200" enable-background="new 0 0 200 200" xml:space="preserve">
<g id="Layer_1">
</g>
<g id="Layer_2">
	<g>
		<path d="M187.35,136.441V119.54c-0.012-0.23-0.051-0.459-0.116-0.681c-0.021-0.09-0.017-0.185-0.046-0.271
			c-0.109-0.335-0.278-0.648-0.497-0.925l-0.037-0.047h-0.001l-24.008-30.011c-0.57-0.714-1.434-1.129-2.348-1.129h-21.04V68.442
			c0-1.66-1.346-3.006-3.006-3.006H87.066c-4.968-20.989-26.011-33.976-47-29.007S6.091,62.44,11.06,83.43
			c3.403,14.377,14.629,25.604,29.007,29.007v24.005c-3.851,4.507-3.462,11.248,0.881,15.281c0.563,0.564,1.328,0.881,2.125,0.881
			h9.321c1.659,8.133,9.598,13.38,17.73,11.72c5.902-1.205,10.515-5.817,11.72-11.72h63.729c1.66,8.133,9.599,13.38,17.73,11.72
			c5.902-1.205,10.515-5.817,11.72-11.72h9.321c0.797,0,1.562-0.316,2.125-0.881C190.812,147.689,191.2,140.948,187.35,136.441z
			 M177.589,115.907l-23.303-2.117v-9.279h14.186L177.589,115.907z M16.021,74.454c0-18.261,14.803-33.063,33.063-33.063
			s33.063,14.803,33.063,33.063c0,18.26-14.803,33.064-33.063,33.064C30.832,107.496,16.041,92.705,16.021,74.454z M67.118,158.615
			c-4.979,0-9.017-4.037-9.017-9.018c0-4.979,4.037-9.017,9.017-9.017c4.98,0,9.018,4.037,9.018,9.017
			C76.13,154.576,72.097,158.609,67.118,158.615z M67.118,134.569c-7.138,0.01-13.288,5.031-14.725,12.022h-7.958
			c-1.547-2.153-1.218-5.128,0.762-6.892c0.563-0.563,0.881-1.328,0.881-2.125v-3.006h3.006c1.66,0,3.006-1.346,3.006-3.006
			s-1.346-3.006-3.006-3.006h-3.006v-15.182c0.995,0.077,1.991,0.152,3.006,0.152c21.57-0.023,39.051-17.504,39.074-39.075
			c0-1.015-0.075-2.011-0.151-3.006h45.238v75.144H81.844C80.406,139.601,74.257,134.579,67.118,134.569z M160.297,158.615
			c-4.979,0-9.017-4.037-9.017-9.018c0-4.979,4.037-9.017,9.017-9.017c4.98,0,9.018,4.037,9.018,9.017
			C169.31,154.576,165.275,158.609,160.297,158.615z M182.98,146.592h-7.958c-1.659-8.132-9.598-13.379-17.73-11.719
			c-5.902,1.204-10.515,5.816-11.72,11.719h-6.315V92.488h19.597l4.809,6.012H151.28c-1.66,0-3.006,1.346-3.006,3.006v15.028
			c0,1.555,1.186,2.854,2.734,2.994l30.329,2.758v6.271h-3.006c-1.66,0-3.006,1.346-3.006,3.006s1.346,3.006,3.006,3.006h3.006
			v3.006c0.007,0.787,0.315,1.541,0.863,2.107C184.192,141.446,184.528,144.43,182.98,146.592z"/>
		<path d="M66.237,57.299c-1.173-1.173-3.075-1.174-4.249-0.001c0,0-0.001,0.001-0.001,0.001L34.055,85.232l-3.887-3.887
			c-1.184-1.163-3.087-1.146-4.25,0.038c-1.148,1.17-1.148,3.043,0,4.212l6.012,6.012c1.173,1.174,3.076,1.175,4.249,0.001
			c0.001,0,0.001,0,0.001-0.001L66.237,61.55c1.174-1.173,1.175-3.076,0.002-4.25C66.238,57.3,66.238,57.3,66.237,57.299z"/>
	</g>
</g>
</svg>
