<?xml version="1.0" encoding="utf-8"?>
<!-- Generator: Adobe Illustrator 16.0.0, SVG Export Plug-In . SVG Version: 6.00 Build 0)  -->
<!DOCTYPE svg PUBLIC "-//W3C//DTD SVG 1.1//EN" "http://www.w3.org/Graphics/SVG/1.1/DTD/svg11.dtd">
<svg version="1.1" id="Layer_1" xmlns="http://www.w3.org/2000/svg" xmlns:xlink="http://www.w3.org/1999/xlink" x="0px" y="0px"
	 width="200px" height="200px" viewBox="0 0 200 200" enable-background="new 0 0 200 200" xml:space="preserve">
<g>
	<path d="M175.743,10H24.257c-4.21,0-7.624,3.414-7.624,7.624v164.752c0,4.211,3.414,7.624,7.624,7.624h151.486
		c4.21,0,7.624-3.413,7.624-7.624V17.662c0.021-4.21-3.375-7.641-7.586-7.662C175.769,10,175.756,10,175.743,10z M24.219,169.854
		V47.681h151.524v122.173H24.219z M175.781,17.662v26.207H24.257V17.624L175.781,17.662z M24.219,182.376v-8.71h151.524v8.748
		L24.219,182.376z"/>
	<path d="M99.409,56.563c-28.748,0-52.052,23.304-52.052,52.052s23.305,52.052,52.052,52.052c28.747,0,52.052-23.304,52.052-52.052
		C151.43,79.881,128.144,56.595,99.409,56.563z M99.409,64.187c24.516-0.036,44.419,19.809,44.455,44.326
		c0.007,4.891-0.795,9.749-2.371,14.378c-4.174-1.431-7.745-4.224-10.14-7.929l-1.563-2.211l-1.562,2.211
		c-3.812,5.489-8.863,8.52-14.066,8.52s-10.197-3.03-14.066-8.52l-1.562-2.211l-1.563,2.211c-3.812,5.489-8.863,8.52-14.066,8.52
		c-5.203,0-10.197-3.03-14.066-8.52l-1.563-2.211l-1.582,2.116c-2.126,3.215-5.111,5.771-8.615,7.375
		c-7.537-23.339,5.274-48.37,28.614-55.906C90.123,64.905,94.752,64.18,99.409,64.187z M99.409,153.024
		c-17.871-0.02-33.996-10.731-40.94-27.198c3.46-1.492,6.503-3.809,8.863-6.747c3.72,4.921,9.464,7.897,15.629,8.101
		c6.158-0.208,11.894-3.185,15.609-8.101c3.72,4.921,9.464,7.897,15.629,8.101c6.158-0.208,11.895-3.185,15.61-8.101
		c2.677,3.355,6.263,5.87,10.33,7.242C133.073,142.524,117.085,153.006,99.409,153.024z"/>
	<path d="M146.62,39.409c4.526,0,8.195-3.669,8.195-8.195s-3.669-8.196-8.195-8.196s-8.196,3.669-8.196,8.196
		C138.435,35.736,142.098,39.399,146.62,39.409z M146.62,26.811c0.494,0.006,0.984,0.096,1.448,0.267l-3.106,3.107
		c-0.747,0.742-0.752,1.95-0.01,2.697c0.742,0.748,1.949,0.752,2.697,0.01l0,0l3.106-3.107c0.169,0.458,0.259,0.941,0.267,1.43
		c0,2.421-1.963,4.384-4.384,4.384s-4.384-1.963-4.384-4.384c0-2.421,1.963-4.384,4.384-4.384L146.62,26.811z"/>
	<path d="M123.729,39.409c4.526,0,8.195-3.669,8.195-8.195s-3.669-8.196-8.195-8.196s-8.196,3.669-8.196,8.196l0,0
		C115.544,35.736,119.207,39.399,123.729,39.409z M123.729,26.811c2.421,0,4.384,1.962,4.384,4.383c0,2.421-1.963,4.384-4.384,4.384
		c-2.422,0-4.384-1.963-4.384-4.384l0,0c0.021-2.409,1.975-4.354,4.384-4.364V26.811z"/>
	<path d="M33.291,33.158H45.28c1.053,0,1.906-0.853,1.906-1.906c0-1.052-0.853-1.906-1.906-1.906H33.291
		c-1.053,0-1.906,0.854-1.906,1.906C31.385,32.305,32.238,33.158,33.291,33.158z"/>
</g>
</svg>
